# Blender v2.90.1 OBJ File: 'SpaceShip.blend'
# www.blender.org
mtllib SpaceShip.mtl
o Cube
v 1.000000 1.000000 -1.000000
v 1.000000 -1.000000 -1.000000
v 0.689155 0.689155 1.182031
v 0.689155 -0.689155 1.182031
v -1.000000 1.000000 -1.000000
v -1.000000 -1.000000 -1.000000
v -0.689155 0.689155 1.182031
v -0.689155 -0.689155 1.182031
v -6.635697 0.306501 -0.306501
v -6.635697 -0.306501 -0.306501
v -6.635697 0.306501 0.306501
v -6.635697 -0.306501 0.306501
v -1.000000 -1.000000 1.000000
v -1.000000 1.000000 1.000000
v 1.000000 1.000000 1.000000
v 1.000000 -1.000000 1.000000
v 0.689155 0.689155 3.279924
v 0.689155 0.144616 3.279924
v -0.689155 0.689155 3.279924
v -0.689155 0.144616 3.279924
v 0.689155 0.689155 4.030587
v 0.689155 0.144616 4.030587
v -0.689155 0.689155 4.030587
v -0.689155 0.144616 4.030587
v -3.260592 0.489462 3.471802
v -3.260592 0.344308 3.471802
v -3.260592 0.489462 3.838709
v -3.260592 0.344308 3.838709
v 1.000000 1.000000 1.000000
v 1.000000 -1.000000 1.000000
v 0.689155 0.689155 -1.182031
v 0.689155 -0.689155 -1.182031
v -1.000000 1.000000 1.000000
v -1.000000 -1.000000 1.000000
v -0.689155 0.689155 -1.182031
v -0.689155 -0.689155 -1.182031
v -6.635697 0.306501 0.306501
v -6.635697 -0.306501 0.306501
v -6.635697 0.306501 -0.306501
v -6.635697 -0.306501 -0.306501
v -1.000000 -1.000000 -1.000000
v -1.000000 1.000000 -1.000000
v 1.000000 1.000000 -1.000000
v 1.000000 -1.000000 -1.000000
v 0.689155 0.689155 -3.279924
v 0.689155 0.144616 -3.279924
v -0.689155 0.689155 -3.279924
v -0.689155 0.144616 -3.279924
v 0.689155 0.689155 -4.030587
v 0.689155 0.144616 -4.030587
v -0.689155 0.689155 -4.030587
v -0.689155 0.144616 -4.030587
v -3.260592 0.489462 -3.471802
v -3.260592 0.344308 -3.471802
v -3.260592 0.489462 -3.838709
v -3.260592 0.344308 -3.838709
vt 0.875000 0.500000
vt 0.625000 0.750000
vt 0.625000 0.500000
vt 0.413856 0.788856
vt 0.413856 0.961144
vt 0.413856 0.961144
vt 0.625000 1.000000
vt 0.375000 1.000000
vt 0.375000 1.000000
vt 0.375000 0.500000
vt 0.125000 0.750000
vt 0.125000 0.500000
vt 0.375000 0.750000
vt 0.625000 0.250000
vt 0.375000 0.250000
vt 0.625000 0.000000
vt 0.375000 0.250000
vt 0.375000 0.000000
vt 0.125000 0.500000
vt 0.875000 0.750000
vt 0.875000 0.750000
vt 0.625000 0.250000
vt 0.586144 0.788856
vt 0.586144 0.961144
vt 0.586144 0.961144
vt 0.586144 0.788856
vt 0.586144 0.788856
vt 0.413856 0.788856
vt 0.413856 0.961144
vt 0.413856 0.788856
vt 0.586144 0.961144
vt 0.413856 0.961144
vt 0.413856 0.961144
vt 0.586144 0.961144
vt 0.586144 0.961144
vt 0.625000 1.000000
vt 0.125000 0.750000
vt 0.875000 0.500000
vt 0.875000 0.500000
vt 0.625000 0.500000
vt 0.625000 0.750000
vt 0.413856 0.788856
vt 0.413856 0.961144
vt 0.413856 0.961144
vt 0.625000 1.000000
vt 0.375000 1.000000
vt 0.375000 1.000000
vt 0.375000 0.500000
vt 0.125000 0.500000
vt 0.125000 0.750000
vt 0.375000 0.750000
vt 0.625000 0.250000
vt 0.375000 0.250000
vt 0.625000 0.000000
vt 0.375000 0.000000
vt 0.375000 0.250000
vt 0.125000 0.500000
vt 0.875000 0.750000
vt 0.875000 0.750000
vt 0.625000 0.250000
vt 0.586144 0.788856
vt 0.586144 0.961144
vt 0.586144 0.961144
vt 0.586144 0.788856
vt 0.586144 0.788856
vt 0.413856 0.788856
vt 0.413856 0.788856
vt 0.413856 0.961144
vt 0.586144 0.961144
vt 0.413856 0.961144
vt 0.413856 0.961144
vt 0.586144 0.961144
vt 0.586144 0.961144
vt 0.625000 1.000000
vt 0.125000 0.750000
vt 0.875000 0.500000
vn 0.0000 1.0000 0.0000
vn 0.0000 -0.9293 0.3693
vn -0.1221 0.0000 0.9925
vn 0.0000 -1.0000 0.0000
vn 1.0000 0.0000 0.0000
vn 0.0000 0.0000 -1.0000
vn -1.0000 0.0000 0.0000
vn -0.1221 -0.9925 0.0000
vn -0.1221 0.9925 0.0000
vn -0.1221 0.0000 -0.9925
vn -0.5053 0.0000 0.8629
vn 0.5053 0.0000 0.8629
vn 0.0000 0.5053 0.8629
vn 0.0000 -0.5053 0.8629
vn 0.0000 0.0000 1.0000
vn -0.0744 0.0000 0.9972
vn -0.0744 0.0000 -0.9972
vn -0.0774 -0.9970 0.0000
vn -0.0774 0.9970 0.0000
vn 0.0000 -0.9293 -0.3693
vn -0.5053 0.0000 -0.8629
vn 0.5053 0.0000 -0.8629
vn 0.0000 0.5053 -0.8629
vn 0.0000 -0.5053 -0.8629
usemtl Material
s off
f 5/1/1 15/2/1 1/3/1
f 4/4/2 20/5/2 8/6/2
f 14/7/3 12/8/3 13/9/3
f 2/10/4 13/11/4 6/12/4
f 1/3/5 16/13/5 2/10/5
f 5/14/6 2/10/6 6/15/6
f 11/16/7 10/17/7 12/18/7
f 13/11/8 10/19/8 6/12/8
f 5/1/9 11/20/9 14/21/9
f 6/15/10 9/22/10 5/14/10
f 8/6/11 14/7/11 13/9/11
f 3/23/12 16/13/12 15/2/12
f 3/23/13 14/7/13 7/24/13
f 8/6/14 16/13/14 4/4/14
f 19/25/1 21/26/1 17/27/1
f 3/23/5 18/28/5 4/4/5
f 7/24/1 17/27/1 3/23/1
f 7/24/7 20/5/7 19/25/7
f 21/26/15 24/29/15 22/30/15
f 23/31/16 28/32/16 24/29/16
f 18/28/4 24/29/4 20/5/4
f 17/27/5 22/30/5 18/28/5
f 26/33/7 27/34/7 25/35/7
f 20/5/17 25/35/17 19/25/17
f 24/29/18 26/33/18 20/5/18
f 19/25/19 27/34/19 23/31/19
f 5/1/1 14/21/1 15/2/1
f 4/4/2 18/28/2 20/5/2
f 14/7/3 11/36/3 12/8/3
f 2/10/4 16/13/4 13/11/4
f 1/3/5 15/2/5 16/13/5
f 5/14/6 1/3/6 2/10/6
f 11/16/7 9/22/7 10/17/7
f 13/11/8 12/37/8 10/19/8
f 5/1/9 9/38/9 11/20/9
f 6/15/10 10/17/10 9/22/10
f 8/6/11 7/24/11 14/7/11
f 3/23/12 4/4/12 16/13/12
f 3/23/13 15/2/13 14/7/13
f 8/6/14 13/9/14 16/13/14
f 19/25/1 23/31/1 21/26/1
f 3/23/5 17/27/5 18/28/5
f 7/24/1 19/25/1 17/27/1
f 7/24/7 8/6/7 20/5/7
f 21/26/15 23/31/15 24/29/15
f 23/31/16 27/34/16 28/32/16
f 18/28/4 22/30/4 24/29/4
f 17/27/5 21/26/5 22/30/5
f 26/33/7 28/32/7 27/34/7
f 20/5/17 26/33/17 25/35/17
f 24/29/18 28/32/18 26/33/18
f 19/25/19 25/35/19 27/34/19
f 33/39/1 29/40/1 43/41/1
f 32/42/20 36/43/20 48/44/20
f 42/45/10 41/46/10 40/47/10
f 30/48/4 34/49/4 41/50/4
f 29/40/5 30/48/5 44/51/5
f 33/52/15 34/53/15 30/48/15
f 39/54/7 40/55/7 38/56/7
f 41/50/8 34/49/8 38/57/8
f 33/39/9 42/58/9 39/59/9
f 34/53/3 33/52/3 37/60/3
f 36/43/21 41/46/21 42/45/21
f 31/61/22 43/41/22 44/51/22
f 31/61/23 35/62/23 42/45/23
f 36/43/24 32/42/24 44/51/24
f 47/63/1 45/64/1 49/65/1
f 31/61/5 32/42/5 46/66/5
f 35/62/1 31/61/1 45/64/1
f 35/62/7 47/63/7 48/44/7
f 49/65/6 50/67/6 52/68/6
f 51/69/17 52/68/17 56/70/17
f 46/66/4 48/44/4 52/68/4
f 45/64/5 46/66/5 50/67/5
f 54/71/7 53/72/7 55/73/7
f 48/44/16 47/63/16 53/72/16
f 52/68/18 48/44/18 54/71/18
f 47/63/19 51/69/19 55/73/19
f 33/39/1 43/41/1 42/58/1
f 32/42/20 48/44/20 46/66/20
f 42/45/10 40/47/10 39/74/10
f 30/48/4 41/50/4 44/51/4
f 29/40/5 44/51/5 43/41/5
f 33/52/15 30/48/15 29/40/15
f 39/54/7 38/56/7 37/60/7
f 41/50/8 38/57/8 40/75/8
f 33/39/9 39/59/9 37/76/9
f 34/53/3 37/60/3 38/56/3
f 36/43/21 42/45/21 35/62/21
f 31/61/22 44/51/22 32/42/22
f 31/61/23 42/45/23 43/41/23
f 36/43/24 44/51/24 41/46/24
f 47/63/1 49/65/1 51/69/1
f 31/61/5 46/66/5 45/64/5
f 35/62/1 45/64/1 47/63/1
f 35/62/7 48/44/7 36/43/7
f 49/65/6 52/68/6 51/69/6
f 51/69/17 56/70/17 55/73/17
f 46/66/4 52/68/4 50/67/4
f 45/64/5 50/67/5 49/65/5
f 54/71/7 55/73/7 56/70/7
f 48/44/16 53/72/16 54/71/16
f 52/68/18 54/71/18 56/70/18
f 47/63/19 55/73/19 53/72/19
